# xmcd
#
# Track frame offsets: 
#        150
#        2671
#        3369
#        5409
#        8268
#        10827
#        20744
#        26286
#        27545
#        33361
#        47259
#        57107
#        68461
#        78133
#        95063
#        107205
#        117465
#        128593
#        136045
#        138778
#        140932
#        142706
#        143341
#        146581
#        149041
#        152107
#        154416
#        158343
#        162874
#        175094
#        188072
#        188889
#        199423
#        209287
#        212215
#        213486
#        223352
#        235231
#        249387
#        261258
#        277969
#        289208
#        294037
#
# Disc length: 4006 seconds
#
# Revision: 0
# Processed by: cddbd v1.5.2PL0 Copyright (c) Steve Scherf et al.
# Submitted via: ExactAudioCopy v0.95b4
#
DISCID=5a0fa42b
DTITLE=The Beatles  - Beatles Live 06 - Convention Hall Wisdom - Disc 
DTITLE=2
DYEAR=1900
DGENRE=
TTITLE0=intro (Chicago 1964)
TTITLE1=Twist And Shout-You Can't Do That (Chicago 1964)
TTITLE2=intro (Detroit 1964)
TTITLE3=Can't Buy Me Love (Detroit 1964)
TTITLE4=You Can't Do That (Toronto 1964)
TTITLE5=All My Loving (Toronto 1964)
TTITLE6=She Loves You (Toronto 1964)
TTITLE7=intro (Montreal 1964)
TTITLE8=Twist And Shout (Montreal 1964)
TTITLE9=You Can't Do That (Montreal 1964)
TTITLE10=All My Loving (Montreal 1964)
TTITLE11=She Loves You (Montreal 1964)
TTITLE12=Things We Said Today (Montreal 1964)
TTITLE13=Roll Over Beethoven (Montreal 1964)
TTITLE14=Can't Buy Me Love (Montreal 1964)
TTITLE15=If I Fell (Montreal 1964)
TTITLE16=Boys (Montreal 1964)
TTITLE17=A Hard Day's Night (Montreal 1964)
TTITLE18=Twist And Shout (Boston 1964)
TTITLE19=intro to all my loving (New Orleans 1964)
TTITLE20=intro to she loves you (New Orleans 1964)
TTITLE21=intro to things we said today (New Orleans 1964)
TTITLE22=intro to can't buy me love (New Orleans 1964)
TTITLE23=intro to if i fell (New Orleans 1964)
TTITLE24=intro to boys (New Orleans 1964)
TTITLE25=intro to a hard day's night (New Orleans 1964)
TTITLE26=intro to long tall sally (New Orleans 1964)
TTITLE27=She Loves You (unknown 1964)
TTITLE28=Kansas City-Hey Hey Hey Hey (undubbed) (Shindig)
TTITLE29=Kansas City-Hey Hey Hey Hey (Shindig)
TTITLE30=intro (Shindig)
TTITLE31=I'm A Loser (Shindig)
TTITLE32=Boys (Shindig)
TTITLE33=outro (Shindig)
TTITLE34=Twist And Shout (Plymouth 1964)
TTITLE35=intro (NME Pollwinners 1965)
TTITLE36=I Feel Fine (NME Pollwinners 1965)
TTITLE37=She's A Woman  (NME Pollwinners 1965)
TTITLE38=Baby's In Black (NME Pollwinners 1965)
TTITLE39=Ticket To Ride (NME Pollwinners 1965)
TTITLE40=Long Tall Sally (NME Pollwinners 1965)
TTITLE41=outro (NME Pollwinners 1965)
TTITLE42=It's A Long Way To Tipperary (The Best On Record)
EXTD=
EXTT0=
EXTT1=
EXTT2=
EXTT3=
EXTT4=
EXTT5=
EXTT6=
EXTT7=
EXTT8=
EXTT9=
EXTT10=
EXTT11=
EXTT12=
EXTT13=
EXTT14=
EXTT15=
EXTT16=
EXTT17=
EXTT18=
EXTT19=
EXTT20=
EXTT21=
EXTT22=
EXTT23=
EXTT24=
EXTT25=
EXTT26=
EXTT27=
EXTT28=
EXTT29=
EXTT30=
EXTT31=
EXTT32=
EXTT33=
EXTT34=
EXTT35=
EXTT36=
EXTT37=
EXTT38=
EXTT39=
EXTT40=
EXTT41=
EXTT42=
PLAYORDER=
